<svg width="76" height="76" viewBox="0 0 76 76" fill="none" xmlns="http://www.w3.org/2000/svg">
<path d="M24.4763 3.65475C23.3333 0.893933 20.3202 -0.575534 17.4406 0.21115L4.37871 3.77349C1.79601 4.48596 0 6.83117 0 9.50293C0 46.2248 29.7753 76 66.4971 76C69.1688 76 71.514 74.204 72.2265 71.6213L75.7888 58.5594C76.5755 55.6798 75.1061 52.6667 72.3452 51.5237L58.0959 45.5865C55.6765 44.5772 52.8711 45.2748 51.2235 47.3083L45.2269 54.6259C34.7774 49.6832 26.3168 41.2226 21.3741 30.7731L28.6917 24.7913C30.7252 23.1289 31.4228 20.3384 30.4135 17.919L24.4763 3.66959V3.65475Z" fill="#FF69B4" fill-opacity="0.88"/>
</svg>
