<svg width="76" height="57" viewBox="0 0 76 57" fill="none" xmlns="http://www.w3.org/2000/svg">
<path d="M7.125 0C3.19141 0 0 3.19141 0 7.125C0 9.36641 1.05391 11.4742 2.85 12.825L35.15 37.05C36.8422 38.3117 39.1578 38.3117 40.85 37.05L73.15 12.825C74.9461 11.4742 76 9.36641 76 7.125C76 3.19141 72.8086 0 68.875 0H7.125ZM0 16.625V47.5C0 52.7398 4.26016 57 9.5 57H66.5C71.7398 57 76 52.7398 76 47.5V16.625L43.7 40.85C40.3156 43.3883 35.6844 43.3883 32.3 40.85L0 16.625Z" fill="#FF69B4" fill-opacity="0.88"/>
</svg>
