<svg width="66" height="88" viewBox="0 0 66 88" fill="none" xmlns="http://www.w3.org/2000/svg">
<g clip-path="url(#clip0_129_112)">
<path d="M28.9266 85.8C20.1094 74.7656 0 48.0219 0 33C0 14.7812 14.7812 0 33 0C51.2188 0 66 14.7812 66 33C66 48.0219 45.8906 74.7656 37.0734 85.8C34.9594 88.4297 31.0406 88.4297 28.9266 85.8ZM33 22C30.0826 22 27.2847 23.1589 25.2218 25.2218C23.1589 27.2847 22 30.0826 22 33C22 35.9174 23.1589 38.7153 25.2218 40.7782C27.2847 42.8411 30.0826 44 33 44C35.9174 44 38.7153 42.8411 40.7782 40.7782C42.8411 38.7153 44 35.9174 44 33C44 30.0826 42.8411 27.2847 40.7782 25.2218C38.7153 23.1589 35.9174 22 33 22Z" fill="#FF69B4" fill-opacity="0.88"/>
</g>
<defs>
<clipPath id="clip0_129_112">
<rect width="66" height="88" fill="white" transform="matrix(-1 0 0 1 66 0)"/>
</clipPath>
</defs>
</svg>
