<svg width="667" height="448" viewBox="0 0 667 448" fill="none" xmlns="http://www.w3.org/2000/svg">
<path d="M298.742 159.656V255.789C298.742 266.491 295.443 275.078 288.845 281.549C282.246 287.896 273.531 291.069 262.7 291.069C251.744 291.069 242.967 287.834 236.369 281.363C229.77 274.768 226.471 265.808 226.471 254.483H243.465C243.59 260.829 245.208 265.994 248.32 269.976C251.557 273.958 256.351 275.949 262.7 275.949C269.049 275.949 273.78 274.083 276.893 270.349C280.005 266.491 281.561 261.638 281.561 255.789V159.656H298.742Z" fill="#FF69B4" fill-opacity="0.88"/>
<path d="M0 224.209C0 181.503 9.64637 143.192 28.9389 109.278C48.2316 74.9458 74.4444 48.1496 107.577 28.8898C141.13 9.62986 178.247 0 218.93 0C266.742 0 308.473 11.5141 344.123 34.5422C379.771 57.5702 405.775 90.2276 422.131 132.516H353.558C341.396 106.138 323.781 85.8324 300.714 71.5963C278.065 57.3608 250.804 50.2431 218.93 50.2431C188.313 50.2431 160.842 57.3608 136.517 71.5963C112.191 85.8324 93.1076 106.138 79.2676 132.516C65.4272 158.475 58.507 189.038 58.507 224.209C58.507 258.96 65.4272 289.524 79.2676 315.903C93.1076 341.861 112.191 361.959 136.517 376.195C160.842 390.43 188.313 397.548 218.93 397.548C250.804 397.548 278.065 390.638 300.714 376.822C323.781 362.587 341.396 342.281 353.558 315.903H422.131C405.775 357.772 379.771 390.22 344.123 413.249C308.473 435.857 266.742 447.162 218.93 447.162C178.247 447.162 141.13 437.741 107.577 418.9C74.4444 399.641 48.2316 373.054 28.9389 339.14C9.64637 305.226 0 266.916 0 224.209Z" fill="#FF69B4" fill-opacity="0.88"/>
<path d="M532.652 222.749C537.382 223.496 541.677 225.425 545.537 228.536C549.521 231.648 552.634 235.505 554.875 240.109C557.24 244.714 558.423 249.629 558.423 254.856C558.423 261.451 556.742 267.425 553.381 272.776C550.019 278.003 545.102 282.171 538.628 285.283C532.278 288.269 524.746 289.763 516.031 289.763H467.477V159.656H514.164C523.003 159.656 530.535 161.149 536.76 164.136C542.985 166.998 547.653 170.918 550.766 175.896C553.879 180.874 555.435 186.474 555.435 192.696C555.435 200.411 553.319 206.821 549.085 211.923C544.977 216.901 539.499 220.509 532.652 222.749ZM484.471 215.843H513.043C521.011 215.843 527.174 213.976 531.531 210.243C535.888 206.509 538.067 201.345 538.067 194.749C538.067 188.154 535.888 182.989 531.531 179.256C527.174 175.523 520.887 173.656 512.67 173.656H484.471V215.843ZM514.537 275.763C523.003 275.763 529.602 273.771 534.332 269.789C539.063 265.808 541.429 260.269 541.429 253.176C541.429 245.958 538.939 240.296 533.959 236.189C528.979 231.958 522.319 229.843 513.977 229.843H484.471V275.763H514.537ZM623.277 291.069C614.686 291.069 606.968 289.576 600.12 286.589C593.397 283.478 588.106 279.248 584.247 273.896C580.387 268.421 578.395 262.136 578.271 255.043H596.385C597.007 261.141 599.498 266.305 603.855 270.536C608.337 274.643 614.811 276.696 623.277 276.696C631.369 276.696 637.718 274.705 642.325 270.723C647.056 266.616 649.421 261.389 649.421 255.043C649.421 250.065 648.052 246.021 645.313 242.909C642.574 239.798 639.15 237.434 635.042 235.816C630.933 234.198 625.393 232.456 618.421 230.589C609.831 228.349 602.921 226.109 597.692 223.869C592.588 221.629 588.168 218.145 584.433 213.416C580.823 208.563 579.018 202.091 579.018 194.003C579.018 186.909 580.823 180.625 584.433 175.149C588.043 169.674 593.086 165.443 599.56 162.456C606.158 159.469 613.691 157.976 622.156 157.976C634.357 157.976 644.317 161.025 652.036 167.123C659.879 173.221 664.299 181.309 665.295 191.389H646.62C645.998 186.411 643.383 182.056 638.777 178.323C634.17 174.465 628.07 172.536 620.475 172.536C613.379 172.536 607.59 174.403 603.108 178.136C598.626 181.745 596.385 186.848 596.385 193.443C596.385 198.171 597.692 202.029 600.307 205.016C603.046 208.003 606.345 210.305 610.204 211.923C614.188 213.416 619.728 215.158 626.825 217.149C635.415 219.514 642.325 221.878 647.554 224.243C652.783 226.483 657.265 230.029 661 234.883C664.735 239.611 666.602 246.083 666.602 254.296C666.602 260.643 664.921 266.616 661.56 272.216C658.198 277.816 653.218 282.358 646.62 285.843C640.022 289.328 632.241 291.069 623.277 291.069Z" fill="#FF69B4" fill-opacity="0.88"/>
<path d="M361.26 156.302C357.069 157.846 351.334 158.728 348.466 158.066C342.951 156.743 336.995 160.713 336.995 165.787C336.995 167.552 335.451 171.081 333.245 173.287C328.613 178.36 331.26 181.228 336.334 176.816C338.539 174.831 341.628 173.949 343.172 174.39C344.937 175.052 348.466 174.39 351.113 172.846C355.304 170.64 357.951 171.081 366.334 175.052C372.069 177.699 376.701 181.228 376.701 182.772C376.701 186.743 360.598 203.728 356.628 203.728C354.863 203.728 352.437 204.61 351.113 205.713C347.804 208.802 322.216 211.007 320.672 208.36C319.789 207.037 321.113 201.522 323.539 196.007C329.054 183.434 325.525 182.993 319.128 195.346C316.481 200.64 312.51 206.155 310.304 207.699C305.451 211.007 304.789 217.625 309.201 221.155C310.745 222.478 312.731 228.213 313.613 233.728C315.378 246.743 321.334 260.419 329.716 270.125C333.466 274.096 336.995 280.493 337.878 283.802C339.201 288.875 340.525 289.978 345.378 289.537C348.687 289.316 356.628 290.64 363.245 292.625C378.687 297.478 392.363 297.257 406.922 292.184C413.319 289.978 419.716 289.096 421.26 289.978C425.231 292.405 431.848 287.993 431.848 282.699C431.848 280.272 434.937 274.757 438.687 270.346C454.789 252.037 460.304 223.581 451.922 201.522C449.275 194.905 447.289 186.743 447.289 183.655C447.289 177.257 444.201 173.728 437.363 172.405C434.937 171.963 432.731 169.757 432.289 167.331C430.966 160.272 426.995 156.963 421.039 158.066C418.172 158.728 411.775 157.846 406.922 156.081C396.113 152.331 371.628 152.331 361.26 156.302ZM409.789 161.816C415.084 164.684 415.084 164.684 404.275 169.537C398.098 172.184 389.275 174.169 384.422 174.169C374.275 173.728 354.201 166.669 355.966 163.802C359.937 157.405 398.981 155.86 409.789 161.816ZM349.348 164.243C351.554 167.993 346.481 172.184 343.392 169.096C340.745 166.449 342.51 161.816 345.819 161.816C346.922 161.816 348.466 162.919 349.348 164.243ZM426.334 166.228C426.334 167.993 424.569 169.757 422.584 170.199C419.716 170.64 418.613 169.537 418.613 166.228C418.613 162.919 419.716 161.816 422.584 162.257C424.569 162.699 426.334 164.463 426.334 166.228ZM417.51 173.066C418.392 174.169 421.701 175.052 424.789 174.61C430.084 173.949 430.745 174.831 432.289 184.316C433.834 192.919 433.172 196.669 428.76 206.816C423.025 220.052 418.613 222.257 414.863 214.096C413.539 211.449 408.025 203.728 402.51 196.89C391.481 183.213 391.481 179.463 403.834 174.169C412.657 170.199 415.745 169.978 417.51 173.066ZM388.613 184.096C386.848 187.184 381.113 186.522 381.113 183.213C381.113 181.449 381.775 179.463 382.657 178.802C384.642 176.816 390.157 181.669 388.613 184.096ZM442.878 181.669C442.878 184.096 441.554 186.081 440.01 186.081C435.819 186.081 434.054 183.875 435.598 180.346C437.363 175.713 442.878 176.596 442.878 181.669ZM399.201 199.757C409.348 212.552 414.642 221.375 412.216 221.375C411.113 221.375 406.481 219.831 401.848 217.846C397.216 215.86 387.51 212.993 380.231 211.669C372.951 210.125 366.775 207.919 366.334 206.596C365.892 205.272 368.098 201.081 371.187 197.331C380.231 186.963 389.716 187.625 399.201 199.757ZM446.407 198.213C452.804 213.434 453.025 245.64 446.848 245.64C443.098 245.64 428.539 231.963 427.216 227.11C426.554 224.463 428.539 216.963 432.289 209.243C435.598 201.963 438.466 194.684 438.466 193.14C438.466 187.625 443.098 190.713 446.407 198.213ZM362.584 210.566C364.128 213.213 359.275 217.405 356.407 215.64C355.525 214.978 354.642 212.993 354.642 211.228C354.642 207.478 360.378 207.037 362.584 210.566ZM318.907 215.419C319.348 217.625 318.245 219.169 316.26 219.169C312.289 219.169 309.863 215.64 311.628 212.331C313.613 209.243 318.025 211.007 318.907 215.419ZM350.672 215.199C351.334 216.743 349.789 222.919 347.363 229.096C345.157 235.052 342.731 247.846 342.069 257.11C341.407 266.596 340.084 274.316 339.201 274.316C333.687 274.316 316.922 239.243 317.142 228.213C317.363 222.919 324.642 215.199 330.598 214.096C341.187 212.11 349.789 212.552 350.672 215.199ZM401.628 222.699C406.039 224.684 410.01 228.434 410.451 230.64C412.657 238.581 390.378 258.875 366.113 271.007C351.113 278.507 345.819 276.302 345.819 262.625C346.039 245.419 352.878 221.375 357.951 221.375C359.275 221.375 362.363 219.39 364.348 217.184C367.878 213.213 368.981 213.213 380.892 216.081C388.172 217.625 397.437 220.713 401.628 222.699ZM423.025 229.316C423.025 233.066 417.289 233.507 415.084 229.978C413.539 227.331 418.392 223.14 421.26 224.905C422.142 225.566 423.025 227.552 423.025 229.316ZM420.378 242.552C421.922 250.272 425.231 251.155 425.231 243.875C425.231 239.905 425.892 236.816 426.554 236.816C429.201 236.816 445.084 250.493 445.084 252.699C445.084 255.787 431.407 274.316 429.201 274.316C428.319 274.316 427.437 270.787 427.437 266.596C427.437 262.405 426.554 258.875 425.231 258.875C424.128 258.875 423.025 261.743 423.025 265.272C423.025 268.802 421.481 272.993 419.495 274.537C417.51 276.081 415.084 279.61 414.201 282.257C410.892 290.86 383.319 294.61 364.789 289.096C359.937 287.552 355.745 285.346 355.304 283.802C354.863 282.478 359.054 279.169 364.789 276.743C378.907 270.346 401.848 253.581 408.907 244.316C415.084 236.155 419.275 235.493 420.378 242.552ZM349.128 281.155C349.128 282.699 347.363 284.463 345.378 284.905C341.407 285.566 339.863 280.934 342.951 277.846C345.157 275.64 349.128 277.625 349.128 281.155ZM426.554 284.243C425.451 287.331 424.569 287.552 421.922 285.346C419.275 283.14 419.054 281.816 421.039 279.39C424.348 275.419 428.539 279.169 426.554 284.243Z" fill="#FF69B4" fill-opacity="0.88"/>
</svg>
