<svg width="197" height="131" viewBox="0 0 197 131" fill="none" xmlns="http://www.w3.org/2000/svg">
<path d="M87.9044 46.4661V74.4445C87.9044 77.5592 86.9336 80.0583 84.9922 81.9416C83.0504 83.7889 80.4861 84.7123 77.299 84.7123C74.0752 84.7123 71.4926 83.7708 69.5512 81.8875C67.6094 79.9681 66.6387 77.3604 66.6387 74.0644H71.6391C71.6759 75.9113 72.152 77.4145 73.0677 78.5734C74.0202 79.7324 75.4308 80.3118 77.299 80.3118C79.1672 80.3118 80.5593 79.7687 81.4753 78.682C82.391 77.5592 82.8489 76.1468 82.8489 74.4445V46.4661H87.9044Z" fill="#FF69B4" fill-opacity="0.88"/>
<path d="M0 65.2536C0 52.8245 2.83844 41.6745 8.51525 31.8042C14.1921 21.8121 21.9052 14.0134 31.6544 8.40804C41.5273 2.80266 52.449 0 64.4199 0C78.4886 0 90.7679 3.35104 101.258 10.0531C111.747 16.7551 119.399 26.2597 124.212 38.5674H104.034C100.456 30.8904 95.2723 24.9805 88.4849 20.8373C81.8204 16.6942 73.7989 14.6227 64.4199 14.6227C55.4109 14.6227 47.3276 16.6942 40.17 20.8373C33.0121 24.9805 27.3969 30.8904 23.3244 38.5674C19.2519 46.1224 17.2156 55.0175 17.2156 65.2536C17.2156 75.3675 19.2519 84.2628 23.3244 91.9401C27.3969 99.4949 33.0121 105.344 40.17 109.487C47.3276 113.63 55.4109 115.702 64.4199 115.702C73.7989 115.702 81.8204 113.691 88.4849 109.67C95.2723 105.527 100.456 99.6171 104.034 91.9401H124.212C119.399 104.126 111.747 113.569 101.258 120.272C90.7679 126.851 78.4886 130.142 64.4199 130.142C52.449 130.142 41.5273 127.4 31.6544 121.916C21.9052 116.311 14.1921 108.573 8.51525 98.7029C2.83844 88.8326 0 77.683 0 65.2536Z" fill="#FF69B4" fill-opacity="0.88"/>
<path d="M156.732 64.8285C158.124 65.0459 159.388 65.6073 160.524 66.5127C161.696 67.4184 162.612 68.541 163.272 69.8809C163.967 71.2212 164.316 72.6516 164.316 74.1729C164.316 76.0923 163.821 77.8309 162.832 79.3883C161.843 80.9095 160.396 82.1226 158.491 83.0283C156.622 83.8973 154.406 84.3322 151.842 84.3322H137.555V46.466H151.292C153.893 46.466 156.109 46.9005 157.941 47.7698C159.773 48.6028 161.146 49.7437 162.062 51.1925C162.978 52.6413 163.436 54.2711 163.436 56.0819C163.436 58.3273 162.814 60.1928 161.568 61.6777C160.359 63.1265 158.747 64.1766 156.732 64.8285ZM142.555 62.8186H150.962C153.307 62.8186 155.121 62.2752 156.403 61.1888C157.685 60.102 158.326 58.5991 158.326 56.6794C158.326 54.76 157.685 53.2568 156.403 52.1704C155.121 51.0839 153.271 50.5405 150.853 50.5405H142.555V62.8186ZM151.402 80.2576C153.893 80.2576 155.835 79.6779 157.227 78.5189C158.619 77.3603 159.315 75.7483 159.315 73.6839C159.315 71.5832 158.582 69.9353 157.117 68.74C155.652 67.5087 153.692 66.8931 151.237 66.8931H142.555V80.2576H151.402ZM183.399 84.7122C180.871 84.7122 178.6 84.2777 176.585 83.4084C174.607 82.503 173.05 81.2719 171.914 79.7142C170.778 78.1208 170.192 76.2916 170.156 74.2273H175.486C175.669 76.002 176.402 77.505 177.684 78.7363C179.003 79.9316 180.908 80.5291 183.399 80.5291C185.78 80.5291 187.648 79.9497 189.004 78.7908C190.396 77.5955 191.092 76.0742 191.092 74.2273C191.092 72.7785 190.689 71.6015 189.883 70.6958C189.077 69.7904 188.069 69.1024 186.861 68.6315C185.652 68.1606 184.021 67.6536 181.97 67.1102C179.442 66.4583 177.409 65.8064 175.87 65.1545C174.369 64.5025 173.068 63.4886 171.969 62.1122C170.907 60.6998 170.376 58.8162 170.376 56.4623C170.376 54.3977 170.907 52.5688 171.969 50.9751C173.031 49.3816 174.515 48.1502 176.42 47.2809C178.362 46.4116 180.578 45.9771 183.069 45.9771C186.659 45.9771 189.59 46.8644 191.861 48.6392C194.169 50.4139 195.469 52.7679 195.763 55.7015H190.267C190.084 54.2527 189.315 52.9853 187.96 51.8988C186.604 50.776 184.809 50.2146 182.574 50.2146C180.486 50.2146 178.783 50.7579 177.464 51.8444C176.145 52.8947 175.486 54.3799 175.486 56.2993C175.486 57.6753 175.87 58.7982 176.64 59.6675C177.446 60.5368 178.417 61.2068 179.552 61.6777C180.724 62.1122 182.354 62.6192 184.443 63.1987C186.97 63.887 189.004 64.575 190.542 65.2633C192.081 65.9152 193.4 66.9473 194.499 68.36C195.598 69.736 196.147 71.6196 196.147 74.0099C196.147 75.8571 195.652 77.5955 194.664 79.2253C193.674 80.8551 192.209 82.177 190.267 83.1913C188.326 84.2055 186.036 84.7122 183.399 84.7122Z" fill="#FF69B4" fill-opacity="0.88"/>
<path d="M106.3 45.49C105.067 45.9394 103.38 46.196 102.536 46.0034C100.913 45.6183 99.1605 46.7738 99.1605 48.2505C99.1605 48.7642 98.7061 49.7912 98.057 50.4333C96.6941 51.9097 97.4729 52.7444 98.966 51.4604C99.6148 50.8826 100.524 50.6259 100.978 50.7543C101.497 50.947 102.536 50.7543 103.315 50.3049C104.548 49.6629 105.327 49.7912 107.793 50.947C109.481 51.7173 110.844 52.7444 110.844 53.1938C110.844 54.3495 106.106 59.2928 104.937 59.2928C104.418 59.2928 103.704 59.5495 103.315 59.8705C102.341 60.7695 94.8117 61.4113 94.3574 60.6409C94.0976 60.2558 94.4872 58.6508 95.201 57.0457C96.8238 53.3864 95.7854 53.2581 93.9031 56.8533C93.1242 58.3941 91.9558 59.9991 91.3067 60.4485C89.8787 61.4113 89.6839 63.3374 90.9821 64.3647C91.4364 64.7498 92.0208 66.4189 92.2803 68.0239C92.7997 71.8118 94.5522 75.7921 97.0186 78.6169C98.1221 79.7726 99.1605 81.6344 99.4203 82.5974C99.8096 84.0739 100.199 84.3949 101.627 84.2665C102.601 84.2022 104.937 84.5875 106.885 85.1652C111.428 86.5777 115.452 86.5133 119.736 85.0369C121.619 84.3949 123.501 84.1382 123.955 84.3949C125.124 85.1012 127.071 83.8172 127.071 82.2764C127.071 81.57 127.98 79.965 129.083 78.6812C133.821 73.3526 135.444 65.0708 132.978 58.6508C132.199 56.725 131.614 54.3495 131.614 53.4508C131.614 51.5887 130.706 50.5616 128.694 50.1766C127.98 50.0479 127.331 49.4059 127.201 48.6999C126.811 46.6454 125.643 45.6824 123.89 46.0034C123.047 46.196 121.164 45.9394 119.736 45.4257C116.556 44.3343 109.351 44.3343 106.3 45.49ZM120.58 47.0948C122.138 47.9295 122.138 47.9295 118.958 49.3419C117.14 50.1123 114.544 50.69 113.116 50.69C110.13 50.5616 104.223 48.5072 104.743 47.6728C105.911 45.811 117.4 45.3614 120.58 47.0948ZM102.795 47.8011C103.444 48.8925 101.952 50.1123 101.043 49.2135C100.264 48.4432 100.783 47.0948 101.757 47.0948C102.081 47.0948 102.536 47.4158 102.795 47.8011ZM125.448 48.3788C125.448 48.8925 124.929 49.4059 124.345 49.5346C123.501 49.6629 123.177 49.3419 123.177 48.3788C123.177 47.4158 123.501 47.0948 124.345 47.2231C124.929 47.3518 125.448 47.8652 125.448 48.3788ZM122.852 50.369C123.111 50.69 124.085 50.947 124.994 50.8183C126.552 50.6259 126.746 50.8826 127.201 53.6431C127.655 56.1469 127.46 57.2383 126.162 60.1915C124.475 64.0437 123.177 64.6854 122.073 62.3103C121.683 61.5399 120.061 59.2928 118.438 57.3027C115.193 53.3221 115.193 52.2307 118.828 50.69C121.424 49.5346 122.333 49.4702 122.852 50.369ZM114.349 53.5791C113.83 54.4778 112.142 54.2852 112.142 53.3221C112.142 52.8087 112.337 52.2307 112.596 52.0384C113.181 51.4604 114.803 52.8728 114.349 53.5791ZM130.316 52.8728C130.316 53.5791 129.927 54.1568 129.473 54.1568C128.239 54.1568 127.72 53.5148 128.174 52.4877C128.694 51.1393 130.316 51.3963 130.316 52.8728ZM117.465 58.1371C120.45 61.8609 122.008 64.4287 121.294 64.4287C120.97 64.4287 119.607 63.9794 118.243 63.4017C116.88 62.8237 114.024 61.9893 111.883 61.6039C109.741 61.1546 107.923 60.5125 107.793 60.1275C107.663 59.7422 108.313 58.5224 109.221 57.431C111.883 54.4135 114.674 54.6062 117.465 58.1371ZM131.355 57.6877C133.237 62.1176 133.302 71.4908 131.485 71.4908C130.381 71.4908 126.097 67.5103 125.708 66.0979C125.513 65.3275 126.097 63.1447 127.201 60.8979C128.174 58.7791 129.018 56.6606 129.018 56.2113C129.018 54.6062 130.381 55.5049 131.355 57.6877ZM106.69 61.2829C107.144 62.0533 105.716 63.2733 104.872 62.7596C104.613 62.567 104.353 61.9893 104.353 61.4756C104.353 60.3842 106.041 60.2558 106.69 61.2829ZM93.8381 62.6953C93.9678 63.3373 93.6433 63.7867 93.0592 63.7867C91.8907 63.7867 91.1769 62.7596 91.6962 61.7966C92.2803 60.8979 93.5786 61.4113 93.8381 62.6953ZM103.185 62.6313C103.38 63.0807 102.925 64.8781 102.211 66.6759C101.562 68.4093 100.848 72.1328 100.653 74.829C100.459 77.5898 100.069 79.8366 99.8096 79.8366C98.1871 79.8366 93.254 69.629 93.3187 66.4189C93.3838 64.8781 95.5256 62.6313 97.2781 62.3103C100.394 61.7323 102.925 61.8609 103.185 62.6313ZM118.179 64.8141C119.477 65.3918 120.645 66.4832 120.775 67.1252C121.424 69.4364 114.868 75.3427 107.728 78.8736C103.315 81.0564 101.757 80.4146 101.757 76.4341C101.822 71.4265 103.834 64.4287 105.327 64.4287C105.716 64.4287 106.625 63.851 107.209 63.209C108.248 62.0533 108.572 62.0533 112.077 62.888C114.219 63.3374 116.945 64.2361 118.179 64.8141ZM124.475 66.7399C124.475 67.8313 122.787 67.9596 122.138 66.9326C121.684 66.1622 123.111 64.9424 123.955 65.4561C124.215 65.6485 124.475 66.2265 124.475 66.7399ZM123.696 70.5921C124.15 72.8389 125.124 73.0959 125.124 70.9771C125.124 69.8217 125.318 68.9227 125.513 68.9227C126.292 68.9227 130.966 72.9032 130.966 73.5452C130.966 74.444 126.941 79.8366 126.292 79.8366C126.033 79.8366 125.773 78.8095 125.773 77.5898C125.773 76.3701 125.513 75.3427 125.124 75.3427C124.799 75.3427 124.475 76.1774 124.475 77.2045C124.475 78.2318 124.02 79.4516 123.436 79.9009C122.852 80.3503 122.138 81.3774 121.878 82.1478C120.905 84.6516 112.791 85.743 107.339 84.1382C105.911 83.6888 104.678 83.0468 104.548 82.5974C104.418 82.2121 105.651 81.249 107.339 80.543C111.493 78.6812 118.243 73.8019 120.321 71.1055C122.138 68.7303 123.371 68.5376 123.696 70.5921ZM102.731 81.827C102.731 82.2764 102.211 82.7898 101.627 82.9184C100.459 83.1108 100.004 81.7627 100.913 80.864C101.562 80.222 102.731 80.7997 102.731 81.827ZM125.513 82.7258C125.189 83.6245 124.929 83.6888 124.15 83.0468C123.371 82.4048 123.306 82.0194 123.89 81.3133C124.864 80.1576 126.097 81.249 125.513 82.7258Z" fill="#FF69B4" fill-opacity="0.88"/>
</svg>
